<?xml version="1.0" standalone="no"?>
<!DOCTYPE svg PUBLIC "-//W3C//DTD SVG 20010904//EN"
 "http://www.w3.org/TR/2001/REC-SVG-20010904/DTD/svg10.dtd">
<svg version="1.0" xmlns="http://www.w3.org/2000/svg"
 width="260.000000pt" height="260.000000pt" viewBox="0 0 260.000000 260.000000"
 preserveAspectRatio="xMidYMid meet">
<metadata>
Created by potrace 1.11, written by Peter Selinger 2001-2013
</metadata>
<g transform="translate(0.000000,260.000000) scale(0.100000,-0.100000)"
fill="#000000" stroke="none">
<path d="M0 1300 l0 -1300 1300 0 1300 0 0 1300 0 1300 -1300 0 -1300 0 0
-1300z m1801 798 c116 -53 178 -140 187 -260 11 -149 -72 -274 -216 -329 -43
-16 -88 -22 -184 -26 -71 -3 -128 -8 -128 -10 0 -2 40 -53 88 -113 134 -166
182 -278 182 -425 0 -146 -46 -251 -160 -366 -83 -84 -160 -127 -271 -154 -83
-19 -219 -19 -294 0 -174 46 -309 181 -345 346 -17 77 -8 219 18 292 58 160
237 320 377 334 85 9 137 -30 137 -102 0 -48 -25 -79 -107 -130 -40 -25 -88
-62 -105 -82 -127 -144 -99 -348 58 -424 65 -32 177 -33 244 -2 66 30 130 93
163 160 23 47 28 72 29 133 1 66 -3 84 -31 140 -18 36 -79 120 -138 190 -59
69 -118 144 -133 167 l-27 43 -155 0 c-135 0 -159 3 -187 19 -41 26 -51 68
-26 118 33 67 58 78 198 81 l123 4 6 42 c23 148 164 301 329 355 87 28 100 30
212 27 83 -2 110 -7 156 -28z"/>
<path d="M1555 1903 c-80 -17 -166 -77 -194 -136 -12 -24 -21 -49 -21 -55 0
-9 36 -12 130 -12 163 0 221 12 255 52 74 88 -31 182 -170 151z"/>
</g>
</svg>
