<?xml version="1.0" encoding="utf-8"?>
<!-- Generator: Adobe Illustrator 19.1.1, SVG Export Plug-In . SVG Version: 6.00 Build 0)  -->
<svg version="1.1" id="Capa_1" xmlns="http://www.w3.org/2000/svg" xmlns:xlink="http://www.w3.org/1999/xlink" x="0px" y="0px"
	 viewBox="-331 238 296 86" style="enable-background:new -331 238 296 86;" xml:space="preserve">
<g>
	<path d="M-35,263.3c0-13.9-11.2-25.3-25.1-25.3h-245.8c-13.9,0-25.1,11.3-25.1,25.3v35.5c0,13.9,11.2,25.3,25.1,25.3h245.8
		c13.9,0,25.1-11.3,25.1-25.3V263.3z M-67.2,300.5c0,4.1-3.4,7.5-7.5,7.5h-34c-4.1,0-7.5-3.4-7.5-7.5s3.4-7.5,7.5-7.5h34
		C-70.5,293-67.2,296.4-67.2,300.5z M-131.4,284.6c3.6,2.1,4.8,6.7,2.7,10.2c-1.4,2.4-3.9,3.8-6.5,3.8c-1.3,0-2.7-0.3-3.9-1
		l-5.9-3.3v6.7c0,4.1-3.4,7.5-7.5,7.5s-7.5-3.4-7.5-7.5v-6.9l-5.9,3.5c-1.2,0.7-2.4,1-3.7,1c-2.6,0-5.1-1.3-6.5-3.8
		c-2.1-3.6-0.8-8.2,2.8-10.2l5.9-3.4l-6.1-3.5c-3.6-2.1-4.8-6.7-2.7-10.2c2.1-3.6,6.5-4.8,10.1-2.7l6.1,3.6V261
		c0-4.1,3.4-7.5,7.5-7.5s7.5,3.4,7.5,7.5v7.1l6.1-3.5c3.6-2.1,8.3-0.8,10.3,2.7c2.1,3.6,0.9,8.2-2.7,10.2l-6.1,3.5L-131.4,284.6z
		 M-191.7,284.6c3.6,2.1,4.8,6.7,2.7,10.2c-1.4,2.4-3.9,3.8-6.5,3.8c-1.3,0-2.7-0.3-3.9-1l-6.6-3.7v7.1c0,4.1-3.4,7.5-7.5,7.5
		s-7.5-3.4-7.5-7.5v-6.5l-5.3,3.1c-1.2,0.7-2.4,1-3.7,1c-2.6,0-5.1-1.3-6.5-3.8c-2.1-3.6-0.8-8.2,2.8-10.2l5.9-3.4l-6.1-3.5
		c-3.6-2.1-4.8-6.7-2.7-10.2c2.1-3.6,6.5-4.8,10.1-2.7l5.5,3.3V261c0-4.1,3.4-7.5,7.5-7.5c4.1,0,7.5,3.4,7.5,7.5v7.5l6.8-3.8
		c3.6-2.1,8.3-0.8,10.3,2.7c2.1,3.6,0.9,8.2-2.7,10.2l-6.1,3.5L-191.7,284.6z M-252.1,284.6c3.6,2.1,4.8,6.7,2.7,10.2
		c-1.4,2.4-3.9,3.8-6.5,3.8c-1.3,0-2.7-0.3-3.9-1l-6.3-3.5v6.9c0,4.1-3.4,7.5-7.5,7.5s-7.5-3.4-7.5-7.5v-6.7l-5.6,3.3
		c-1.2,0.7-2.4,1-3.7,1c-2.6,0-5.1-1.3-6.5-3.8c-2.1-3.6-0.8-8.2,2.8-10.2l5.9-3.4l-6.1-3.5c-3.6-2.1-4.8-6.7-2.7-10.2
		c2.1-3.6,6.5-4.8,10.1-2.7l5.8,3.5V261c0-4.1,3.4-7.5,7.5-7.5s7.5,3.4,7.5,7.5v7.3l6.5-3.6c3.6-2.1,8.3-0.8,10.3,2.7
		c2.1,3.6,0.9,8.2-2.7,10.2l-6.1,3.5L-252.1,284.6z"/>
</g>
</svg>
