<?xml version="1.0" encoding="utf-8"?>
<!-- Generator: Adobe Illustrator 19.1.1, SVG Export Plug-In . SVG Version: 6.00 Build 0)  -->
<svg version="1.1"
	 id="svg36" xmlns:dc="http://purl.org/dc/elements/1.1/" xmlns:cc="http://creativecommons.org/ns#" xmlns:rdf="http://www.w3.org/1999/02/22-rdf-syntax-ns#" xmlns:svg="http://www.w3.org/2000/svg"
	 xmlns="http://www.w3.org/2000/svg" xmlns:xlink="http://www.w3.org/1999/xlink" x="0px" y="0px" viewBox="23.5 87.8 366.3 384.1"
	 style="enable-background:new 23.5 87.8 366.3 384.1;" xml:space="preserve">
<style type="text/css">
	.st0{fill:#F51F47;}
</style>
<g id="g4">
	<path id="path2" class="st0" d="M35.5,283.8c12.4,11.9,29.6,14.9,44.8,17.4c2.4,0.4,4.8,0.8,7.1,1.3c1.7,0.5,3.9,1,6.1,1.5
		c20.2,4.8,34.5,9.4,34.5,26c0,10.9-3.6,21-7.5,31.7c-4.4,12.3-8.9,25-8.3,39.8c1.3,26.4,12.4,49.4,29.8,61.5
		c6.9,5.6,16,8.9,24.7,8.9c12.9,0,22.6-7,26.6-19.2c2.8-8.3,2.4-16.3,1.9-24.8c-0.1-2.1-0.2-4.2-0.3-6.5c-0.5-11.7,1-21.4,4.4-30.5
		c6.5-18.2,19.6-35.2,30.2-48l5.8-7.3c8.1-10.2,16.6-20.8,26.1-29.2c4.7-3.7,9.7-5,16.1-6.4c1.8-0.1,112.1-0.8,112.1-0.8l0.5-162.1
		c0,0-86.5-0.2-91.4,0.1c-4.3,0.2-8.4,0.5-12.2,0.5l-1.8,0c-3.6-0.8-7.2-1.2-10.9-1.6c-3.3-0.4-6.8-0.8-10.4-1.5
		c-4.1-0.8-8.3-4.8-12.3-8.7c-2.3-2.2-4.6-4.4-6.9-6c-2.3-1.6-4.6-3.3-6.9-5c-7-5.2-14.4-10.5-22.7-14.3
		c-10.2-4.4-21.5-5.9-32.5-7.4c-5.3-0.7-10.6-1.4-15.7-2.4c-3.3-0.4-6.2-0.7-9-1.1c-8.6-1-17.4-2.1-26.4-2.1c-6,0-11.3,0.4-16.2,1.4
		c-17.6,4.9-28.8,19.1-28.8,35.4c-8.9,3.5-16.9,10.9-22,20.5c-4.5,8.5-6.1,17.6-4.5,25.7c-17,11-25.8,31.7-21.1,49.6
		c-7.5,5.1-12.7,13.7-14.5,24.2C21.7,259.1,26.1,274.5,35.5,283.8L35.5,283.8z M47,251.4c0.6-5,2.9-11.1,10.5-12.5
		c4.1-1.2,6.8-3.5,8.2-6.9c1.6-4,1-9.1-1.6-13.5c-2.7-3.3-3.1-10.1-1.5-16c2.3-7,7.4-12,15.4-14.7c3.4-0.4,6.4-2.8,8.1-6.4
		c1.9-4.1,1.5-8.5-1.1-11.6c-2.3-3.3-1.8-10.5,1.3-16.5c2.5-4.7,6-7.6,9.4-7.5c0.5,0,1,0.1,1.4,0.2l0.5,0.1h0.6
		c4.2,0,9.6-1.8,12.4-6c1.8-2.7,2.1-6.1,0.7-9.2c-1.6-4.5-1.5-9.6,0.6-13c1.5-2.5,3.9-3.9,7.1-4.4c5.7-1.5,11.4-1.5,17-1.5
		c16.4,1.5,33.9,3.2,50.8,6.3l8,1.8c4.2,1,8.3,1.9,12,2.8c6,3,12.8,8.1,19.3,13.1c2.2,1.6,4.3,3.3,6.4,4.8c1.5,1.2,3.2,2.8,4.9,4.4
		c4.3,4,9.1,8.6,15.1,10.3c5.6,3.5,11.6,3.5,16.5,3.5c15.7,1.5,23.1,7.2,26.9,21c3.7,13.9,3.8,29.7,3.5,43.5l-0.1,3.1
		c-0.2,12.9-0.4,29.1-7.1,40.9c-3.3,5.6-9.9,6.8-17.5,8.2c-10.5,1.7-18.8,5.1-26.6,11c-1.1,0.4-2.2,1.2-3.1,2.7
		c-3.2,2.1-5.8,5.3-8.1,8.1c-12.5,13.5-24,27.6-33.1,40.5c-2.1,3.1-4.2,6.1-6.3,9.1c-9.6,13.7-19.6,27.8-23.9,45.3
		c-3,12.8-2.8,24-2.2,37.2l0.1,2c0.5,8,0.6,16.7-3.9,17.3c-0.3,0-0.7,0.1-1.1,0.1c-7.3,0-16.6-9.3-22.1-17.9
		c-5.7-10.9-8.7-22.3-8.3-32.7c0.3-10.7,3.9-20.9,7.6-31.6c4.4-12.7,9-25.8,8-40.2c-1.4-19.5-16.9-36.4-38.4-42.1
		c-6.3-1.6-13-2.8-19.4-3.8c-12-2-24.4-4.1-34.6-9.8C52.8,267.6,45.7,260.5,47,251.4L47,251.4z"/>
</g>
</svg>
