<?xml version="1.0" encoding="utf-8"?>
<svg version="1.1" id="Capa_1" xmlns="http://www.w3.org/2000/svg" xmlns:xlink="http://www.w3.org/1999/xlink" x="0px" y="0px"
	 viewBox="-211.3 25 488.6 512" style="enable-background:new -211.3 25 488.6 512;" xml:space="preserve">
<style type="text/css">
	.st0{fill:#9CC92E;}
</style>
<g>
	<path class="st0" d="M261.2,275.2c-16.6-15.8-39.6-19.7-59.8-23c-3.2-0.5-6.3-1.1-9.4-1.6c-2.3-0.6-5.2-1.3-8.2-2
		c-27-6.3-46.1-12.4-46.2-34.5c-0.1-14.6,4.8-28,9.8-42.3c5.8-16.4,11.8-33.3,10.9-53.1c-1.8-35.2-16.8-65.8-40-81.9
		c-9.2-7.4-21.4-11.8-33-11.8C68.1,25,55.2,34.4,50,50.7c-3.7,11-3.1,21.7-2.4,33c0.1,2.8,0.3,5.6,0.4,8.6
		c0.7,15.6-1.2,28.5-5.8,40.7c-8.6,24.3-26,47-40.1,64.1l-7.7,9.7c-10.8,13.6-22,27.8-34.7,39.1c-6.2,4.9-12.9,6.7-21.5,8.6
		c-2.4,0.2-149.5,1.6-149.5,1.6v216.2c0,0,115.4-0.1,121.9-0.5c5.7-0.3,11.2-0.7,16.2-0.7h2.3c4.8,1,9.6,1.5,14.6,2.1
		c4.4,0.5,9.1,1,13.9,1.9c5.4,1,11,6.3,16.5,11.5c3.1,3,6.2,5.8,9.3,8c3.1,2.2,6.1,4.4,9.2,6.6c9.4,6.8,19.2,14,30.3,18.9
		c13.7,5.9,28.8,7.8,43.4,9.7c7.1,0.9,14.2,1.8,20.9,3.2c4.4,0.5,8.2,0.9,12.1,1.4c11.4,1.3,23.3,2.7,35.1,2.7
		c8,0,15.1-0.6,21.6-1.9c23.4-6.6,38.3-25.6,38.3-47.4c11.9-4.7,22.5-14.7,29.2-27.4c6-11.4,8-23.5,5.8-34.3
		c22.6-14.8,34.2-42.4,27.9-66.2c10-6.9,16.8-18.3,19.2-32.3C279.7,308.2,273.7,287.6,261.2,275.2z M246,318.5
		c-0.8,6.7-3.8,14.9-13.9,16.7c-5.5,1.6-9.1,4.8-10.9,9.2c-2.1,5.4-1.3,12.1,2.2,17.9c3.7,4.3,4.2,13.4,2.1,21.4
		c-3,9.4-9.8,16.1-20.5,19.7c-4.5,0.6-8.6,3.7-10.8,8.5c-2.5,5.5-2,11.4,1.5,15.5c3,4.3,2.4,14-1.7,22c-3.3,6.3-8,10.1-12.5,10.1
		c-0.6,0-1.3-0.1-1.9-0.2l-0.7-0.1H178c-5.6,0-12.9,2.4-16.4,8c-2.4,3.7-2.7,8.1-0.9,12.2c2.2,6,2,12.8-0.8,17.3
		c-2,3.3-5.2,5.3-9.5,5.8c-7.6,2-15.2,2-22.6,2c-21.9-2-45.2-4.1-67.7-8.1L49.3,494c-5.6-1.2-11.1-2.4-16-3.7
		c-8-4-17.1-10.8-25.7-17.4c-2.9-2.2-5.7-4.3-8.5-6.3c-2-1.6-4.2-3.7-6.5-5.8c-5.7-5.4-12.1-11.4-20.1-13.6
		c-7.5-4.6-15.5-4.6-22-4.6c-21-1.9-30.8-9.5-36-27.9c-5-18.5-5.2-39.6-4.9-57.9l0.1-4.1c0.2-17.2,0.4-38.8,9.3-54.5
		c4.4-7.5,13.2-9.1,23.3-11c14-2.3,25.1-6.9,35.4-14.8c1.5-0.5,3-1.6,4.1-3.7c4.2-2.9,7.6-7.1,10.8-10.9c16.6-18,31.9-36.9,44-54.2
		c2.8-4.2,5.6-8.2,8.4-12.1c12.8-18.3,26-37.2,31.7-60.4c4-17.1,3.6-32,2.7-49.6l-0.1-2.6c-0.7-10.7-0.8-22.2,5.2-23.1
		c0.4-0.1,0.9-0.1,1.4-0.1c9.8,0,22.2,12.4,29.5,23.8c7.7,14.5,11.7,29.7,11.2,43.5c-0.4,14.3-5.1,27.8-10,42.2
		c-5.8,16.9-11.9,34.5-10.5,53.6c2,26,22.6,48.5,51.4,55.9c8.4,2.2,17.3,3.6,25.9,5c16,2.6,32.6,5.3,46.1,12.9
		C238.2,296.9,247.6,306.3,246,318.5z"/>
</g>
</svg>
