<?xml version="1.0" encoding="utf-8"?>
<!-- Generator: Adobe Illustrator 19.1.1, SVG Export Plug-In . SVG Version: 6.00 Build 0)  -->
<svg version="1.1" id="Capa_1" xmlns="http://www.w3.org/2000/svg" xmlns:xlink="http://www.w3.org/1999/xlink" x="0px" y="0px"
	 viewBox="-325 142.1 245 276.9" style="enable-background:new -325 142.1 245 276.9;" xml:space="preserve">
<path d="M-325,167.1v129.5c0,67.5,54.9,122.5,122.5,122.5s122.5-54.9,122.5-122.5V167.1c0-7.5-3.4-14.6-9.2-19.4
	c-5.9-4.8-13.5-6.6-20.8-5.1c-25.2,5.3-58,8.2-92.4,8.2c-34.4,0-67.2-2.9-92.4-8.2c-1.7-0.4-3.4-0.5-5.1-0.5
	c-5.7,0-11.2,1.9-15.7,5.6C-321.7,152.5-325,159.5-325,167.1z M-180.8,232.4c9-9,21-14,33.7-14s24.7,5,33.7,14
	c5.9,5.9,5.9,15.4,0,21.2c-2.9,2.9-6.8,4.4-10.6,4.4c-3.8,0-7.7-1.5-10.6-4.4c-3.3-3.3-7.8-5.2-12.5-5.2s-9.2,1.8-12.5,5.2
	c-5.9,5.9-15.4,5.9-21.2,0C-186.6,247.7-186.6,238.2-180.8,232.4z M-174.4,317c5.9-5.9,15.4-5.9,21.2,0c5.9,5.9,5.9,15.4,0,21.2
	c-13.2,13.2-30.7,20.4-49.3,20.4c-18.6,0-36.2-7.3-49.3-20.4c-5.9-5.9-5.9-15.4,0-21.2c5.9-5.9,15.4-5.9,21.2,0
	c7.5,7.5,17.5,11.7,28.1,11.7C-191.9,328.7-181.9,324.5-174.4,317z M-293.4,232.4c18.6-18.6,48.8-18.6,67.4,0
	c5.9,5.9,5.9,15.4,0,21.2c-2.9,2.9-6.8,4.4-10.6,4.4c-3.8,0-7.7-1.5-10.6-4.4c-6.9-6.9-18.1-6.9-25,0c-5.9,5.9-15.4,5.9-21.2,0
	C-299.3,247.7-299.3,238.2-293.4,232.4z"/>
</svg>
